<?xml version="1.0" encoding="UTF-8"?><svg id="Layer_2" xmlns="http://www.w3.org/2000/svg" viewBox="0 0 32 32"><g id="Layer_2-2"><ellipse cx="23.5" cy="3.29" rx="3.66" ry="3.29"/><path d="M5.41,8.35l7.22-3.36s7.88,1.72,8.3,2.61,3.9,5.22,3.9,5.22h5.81s3.07,2.43,0,3.19-7.55,0-7.55,0l-2.07-2.75-2.3,3.43s3.47,4.85,3.47,5.67-3.47,9.17-3.47,9.17c0,0-2.71,1.49-3.56-.97s2.14-7.01,2.14-7.01c0,0-5.81-5.74-5.73-6.19s.83-4.85,.83-4.85l1.16-3.58-6.31,1.86s-3.4,.3-1.83-2.46Z"/><path d="M10.64,19.84s-.17,.97-.66,.97H1.18s-2.66,2.31,0,2.91,10.37,0,10.37,0l1.33-1.81-2.24-2.07Z"/></g></svg>