<?xml version="1.0" encoding="UTF-8"?><svg id="Layer_2" xmlns="http://www.w3.org/2000/svg" viewBox="0 0 30.75 31.38"><g id="Layer_2-2"><ellipse cx="17.11" cy="3.08" rx="4.87" ry="3.08"/><path d="M16.3,7.43s5.45-.45,6.11,1.88c.66,2.32,2.63,4.23,4.47,4.9s3.42,1,3.68,1.41,.53,2.16-1.18,2.32-4.86-.25-5.26-1-4.6-2.74-4.6-2.74l-1.97,5.31s1.93,2.73,1.8,3.81,1.34,7.2,1.34,7.2c0,0-2.5,1.91-4.34,0s-1.18-7.04-1.3-7.37-2.29-1.87-2.29-1.87l-2.89,9.38s-1.45,1.03-2.89,.6-2.23-1.43-2.1-1.76S10.78,12.16,10.78,12.16l-3.94,1-1.99,3.4S-.13,17.53,0,15.42s2.23-4.34,2.23-4.34l11.17-3.65h2.89Z"/></g></svg>