<?xml version="1.0" encoding="UTF-8"?><svg id="Layer_2" xmlns="http://www.w3.org/2000/svg" viewBox="0 0 32 32"><g id="Layer_1-2"><path d="M0,0V32H32V0H0ZM2.91,2.91H29.09V29.09H2.91V2.91Zm18.91,5.82c-2.39,0-4.36,1.97-4.36,4.36h2.91c0-.82,.63-1.45,1.45-1.45s1.45,.63,1.45,1.45c0,2.18-1.77,4.78-5.23,7.36l-.59,.43v2.39h8.73v-2.91h-3.94c2.25-2.23,3.94-4.6,3.94-7.27,0-2.39-1.97-4.36-4.36-4.36ZM5.82,14.55l2.58,4.36-2.58,4.36h3.57l.8-1.35,.8,1.35h3.57l-2.58-4.36,2.58-4.36h-3.57l-.8,1.35-.8-1.35h-3.57Z"/></g></svg>